<svg width="44" height="50" viewBox="0 0 44 50" fill="none" xmlns="http://www.w3.org/2000/svg">
<path d="M37.3443 37.3596C41.4471 33.2548 43.7518 27.6886 43.7518 21.885C43.7518 16.0813 41.4471 10.5152 37.3443 6.41028C35.3135 4.37806 32.9021 2.76594 30.2479 1.66603C27.5938 0.566128 24.7489 0 21.8759 0C19.0029 0 16.158 0.566128 13.5039 1.66603C10.8497 2.76594 8.43832 4.37806 6.40747 6.41028C2.30472 10.5152 0 16.0813 0 21.885C0 27.6886 2.30472 33.2548 6.40747 37.3596L11.1605 42.0439L17.5447 48.2469L17.9603 48.6156C20.3822 50.5781 23.929 50.4531 26.2102 48.2469L33.8194 40.8408L37.3443 37.3596V37.3596ZM21.8759 31.2504C19.3895 31.2504 17.005 30.2627 15.2469 28.5046C13.4888 26.7465 12.5011 24.3619 12.5011 21.8756C12.5011 19.3892 13.4888 17.0047 15.2469 15.2466C17.005 13.4885 19.3895 12.5008 21.8759 12.5008C24.3622 12.5008 26.7468 13.4885 28.5049 15.2466C30.263 17.0047 31.2507 19.3892 31.2507 21.8756C31.2507 24.3619 30.263 26.7465 28.5049 28.5046C26.7468 30.2627 24.3622 31.2504 21.8759 31.2504Z" fill="black"/>
</svg>
