<svg width="62" height="50" viewBox="0 0 62 50" fill="none" xmlns="http://www.w3.org/2000/svg">
<path d="M61.5385 12.9731V40.3846C61.5385 42.9348 60.5254 45.3805 58.7222 47.1837C56.9189 48.987 54.4732 50 51.9231 50H9.61538C7.06523 50 4.61952 48.987 2.81628 47.1837C1.01305 45.3805 0 42.9348 0 40.3846V12.9731L29.7923 30.5038C30.0883 30.6784 30.4256 30.7705 30.7692 30.7705C31.1128 30.7705 31.4502 30.6784 31.7462 30.5038L61.5385 12.9731ZM51.9231 1.19049e-07C54.289 -0.000371984 56.5721 0.871564 58.3354 2.449C60.0988 4.02643 61.2186 6.19862 61.4808 8.55L30.7692 26.6154L0.0576927 8.55C0.31984 6.19862 1.43971 4.02643 3.20306 2.449C4.96641 0.871564 7.24944 -0.000371984 9.61538 1.19049e-07H51.9231Z" fill="black"/>
</svg>
